<svg xmlns="http://www.w3.org/2000/svg" viewBox="0 0 1254 1254" role="img" aria-labelledby="title desc">
  <title id="title">Weftext app icon concept</title>
  <desc id="desc">Deep blue-black rounded square with an off-white abstract 文 mark inspired by ancient Chinese glyph forms.</desc>
  <rect x="0" y="0" width="1254" height="1254" rx="220" fill="#07172D"/>
  <path d="M 619.12 160.29 L 604.63 168.13 L 594.07 181.22 L 588.66 196.79 L 587.97 214.32 L 588.05 232.09 L 587.99 249.16 L 588.05 266.97 L 587.58 284.60 L 585.96 301.75 L 582.82 318.27 L 576.98 333.67 L 568.41 347.92 L 557.02 361.04 L 543.96 372.60 L 530.55 383.26 L 516.83 393.13 L 502.86 402.43 L 488.58 410.97 L 473.98 418.76 L 459.20 426.08 L 444.14 432.74 L 428.86 438.86 L 413.39 444.55 L 397.73 449.74 L 381.96 454.69 L 365.97 459.12 L 349.82 463.14 L 333.59 466.98 L 317.35 470.77 L 301.35 475.17 L 286.09 481.34 L 271.53 489.23 L 258.18 500.00 L 247.95 513.48 L 241.68 528.70 L 240.46 545.66 L 248.32 559.95 L 263.37 566.70 L 280.39 567.37 L 296.66 563.64 L 311.87 557.33 L 326.45 549.52 L 340.73 540.98 L 355.54 533.73 L 370.87 527.72 L 386.66 522.82 L 402.87 518.93 L 419.86 519.02 L 428.06 532.79 L 422.59 548.38 L 415.19 563.14 L 407.31 577.69 L 399.51 592.28 L 391.79 606.90 L 386.32 622.45 L 385.47 639.55 L 388.95 655.90 L 395.71 670.92 L 404.41 685.14 L 414.29 698.86 L 424.59 712.42 L 435.40 725.76 L 446.43 739.01 L 457.49 752.25 L 468.76 765.39 L 480.32 778.42 L 491.76 791.50 L 503.59 804.42 L 515.72 817.21 L 527.93 829.98 L 539.95 842.82 L 551.30 855.93 L 557.11 871.39 L 553.78 887.05 L 543.79 900.72 L 531.50 913.37 L 518.54 925.07 L 505.49 936.63 L 492.26 947.71 L 478.88 958.43 L 465.42 968.94 L 451.73 978.91 L 437.32 987.15 L 422.31 993.92 L 406.94 999.84 L 391.82 1006.34 L 377.49 1014.72 L 364.86 1026.62 L 357.21 1041.28 L 355.52 1057.98 L 361.61 1073.25 L 373.84 1084.86 L 388.84 1091.63 L 406.11 1092.99 L 423.04 1090.90 L 438.41 1085.01 L 452.74 1076.56 L 466.38 1066.50 L 479.76 1055.78 L 492.95 1044.60 L 506.20 1033.56 L 519.29 1022.16 L 532.48 1010.99 L 545.68 999.83 L 559.01 989.00 L 572.36 978.20 L 585.76 967.53 L 599.28 957.17 L 613.61 948.75 L 629.90 946.91 L 645.38 952.59 L 659.02 962.69 L 672.41 973.36 L 685.85 983.94 L 699.13 994.89 L 712.39 1005.90 L 725.54 1017.17 L 738.69 1028.45 L 751.83 1039.73 L 765.06 1050.81 L 778.32 1061.83 L 791.81 1072.28 L 805.81 1081.48 L 820.69 1088.58 L 836.71 1092.93 L 854.48 1092.96 L 870.30 1088.13 L 884.16 1078.74 L 892.93 1064.56 L 894.37 1047.81 L 889.32 1032.12 L 877.97 1019.00 L 864.14 1009.39 L 849.29 1002.26 L 833.93 996.32 L 818.87 989.65 L 804.17 982.13 L 790.19 972.87 L 776.59 962.68 L 763.21 951.95 L 750.03 940.77 L 736.86 929.53 L 723.86 917.88 L 711.28 905.27 L 699.59 892.30 L 693.08 877.17 L 696.29 860.76 L 706.10 847.00 L 718.27 834.22 L 730.59 821.50 L 742.46 808.60 L 754.36 795.71 L 765.95 782.70 L 777.32 769.59 L 788.74 756.50 L 799.85 743.28 L 810.90 730.04 L 821.81 716.75 L 832.34 703.29 L 842.30 689.59 L 851.27 675.49 L 858.80 660.79 L 863.62 644.96 L 864.23 628.03 L 860.16 611.91 L 853.25 596.95 L 845.23 582.46 L 837.40 567.88 L 829.86 553.19 L 823.32 538.10 L 825.71 522.25 L 841.72 518.04 L 858.21 521.16 L 874.16 525.66 L 889.59 531.43 L 904.64 538.11 L 919.03 546.39 L 933.31 554.95 L 948.42 561.47 L 964.17 566.47 L 981.28 567.74 L 997.14 563.11 L 1008.12 550.85 L 1009.80 533.90 L 1004.85 518.14 L 995.83 504.06 L 983.08 492.10 L 968.79 483.60 L 953.73 476.94 L 937.96 472.02 L 921.81 467.97 L 905.53 464.26 L 889.39 460.21 L 873.34 455.95 L 857.50 451.16 L 841.86 445.91 L 826.27 440.54 L 810.93 434.54 L 795.79 428.09 L 781.00 420.76 L 766.38 413.05 L 752.02 404.69 L 737.95 395.64 L 724.21 385.80 L 710.63 375.56 L 697.49 364.27 L 685.61 351.52 L 676.15 337.61 L 669.70 322.46 L 666.02 306.16 L 663.96 289.20 L 662.91 271.81 L 662.54 254.10 L 663.02 236.98 L 662.98 219.14 L 663.04 201.32 L 659.07 185.14 L 649.94 171.08 L 636.08 161.79 Z M 620.05 429.52 L 626.92 429.43 L 633.83 430.60 L 640.66 432.73 L 647.29 435.53 L 653.64 438.75 L 659.77 442.31 L 665.74 446.15 L 671.63 450.22 L 677.49 454.46 L 683.34 458.86 L 689.12 463.43 L 694.77 468.18 L 700.23 473.12 L 705.45 478.26 L 710.37 483.62 L 714.94 489.19 L 719.09 495.00 L 722.78 501.05 L 726.00 507.32 L 728.86 513.78 L 731.45 520.37 L 733.86 527.04 L 736.19 533.74 L 738.55 540.42 L 741.01 547.04 L 743.70 553.54 L 746.65 559.89 L 749.82 566.13 L 753.12 572.30 L 756.46 578.47 L 759.75 584.67 L 762.91 590.96 L 765.84 597.39 L 768.47 604.00 L 770.70 610.85 L 772.39 617.87 L 773.37 624.97 L 773.47 632.04 L 772.57 638.97 L 770.76 645.75 L 768.24 652.37 L 765.20 658.84 L 761.83 665.14 L 758.20 671.29 L 754.34 677.32 L 750.28 683.25 L 746.05 689.08 L 741.67 694.84 L 737.19 700.56 L 732.63 706.24 L 728.02 711.91 L 723.39 717.59 L 718.74 723.27 L 714.07 728.96 L 709.39 734.64 L 704.68 740.32 L 699.95 745.98 L 695.19 751.62 L 690.41 757.24 L 685.60 762.84 L 680.75 768.40 L 675.85 773.93 L 670.87 779.44 L 665.77 784.95 L 660.52 790.46 L 655.07 795.98 L 649.41 801.28 L 643.50 805.92 L 637.35 809.45 L 630.91 811.45 L 624.23 811.62 L 617.47 810.20 L 610.82 807.47 L 604.47 803.72 L 598.55 799.22 L 593.00 794.15 L 587.73 788.69 L 582.65 782.99 L 577.67 777.22 L 572.72 771.51 L 567.79 765.86 L 562.89 760.25 L 558.02 754.67 L 553.17 749.12 L 548.36 743.57 L 543.57 738.02 L 538.82 732.46 L 534.10 726.87 L 529.42 721.24 L 524.77 715.57 L 520.18 709.85 L 515.66 704.10 L 511.20 698.31 L 506.83 692.48 L 502.56 686.60 L 498.39 680.69 L 494.34 674.75 L 490.42 668.76 L 486.70 662.70 L 483.36 656.49 L 480.57 650.03 L 478.52 643.24 L 477.32 636.09 L 476.96 628.76 L 477.40 621.43 L 478.61 614.31 L 480.49 607.46 L 482.93 600.84 L 485.80 594.39 L 488.98 588.07 L 492.35 581.84 L 495.79 575.64 L 499.17 569.43 L 502.38 563.15 L 505.33 556.79 L 508.07 550.34 L 510.66 543.83 L 513.16 537.28 L 515.63 530.72 L 518.15 524.16 L 520.76 517.63 L 523.54 511.14 L 526.54 504.73 L 529.85 498.45 L 533.54 492.34 L 537.68 486.46 L 542.34 480.87 L 547.49 475.59 L 553.01 470.59 L 558.76 465.85 L 564.60 461.35 L 570.44 457.07 L 576.24 452.97 L 582.08 448.97 L 588.00 445.03 L 594.07 441.08 L 600.31 437.20 L 606.72 433.73 L 613.31 431.04 Z M 620.81 532.26 L 615.67 533.54 L 610.65 535.69 L 605.89 538.58 L 601.51 542.11 L 597.67 546.14 L 594.49 550.58 L 592.04 555.31 L 590.26 560.28 L 589.03 565.47 L 588.25 570.82 L 587.82 576.29 L 587.63 581.86 L 587.63 587.48 L 587.74 593.15 L 587.91 598.83 L 588.06 604.51 L 588.17 610.18 L 588.24 615.84 L 588.26 621.49 L 588.24 627.15 L 588.19 632.81 L 588.11 638.48 L 587.99 644.15 L 587.85 649.81 L 587.68 655.47 L 587.56 661.10 L 587.62 666.67 L 588.02 672.14 L 588.91 677.48 L 590.42 682.65 L 592.55 687.60 L 595.24 692.24 L 598.44 696.51 L 602.08 700.34 L 606.11 703.66 L 610.46 706.40 L 615.08 708.49 L 619.90 709.85 L 624.87 710.42 L 629.93 710.12 L 634.99 708.93 L 639.94 706.90 L 644.65 704.16 L 648.98 700.78 L 652.80 696.89 L 655.98 692.57 L 658.47 687.91 L 660.34 682.96 L 661.68 677.79 L 662.58 672.43 L 663.11 666.95 L 663.36 661.39 L 663.40 655.77 L 663.30 650.12 L 663.14 644.45 L 662.98 638.78 L 662.86 633.11 L 662.77 627.46 L 662.72 621.80 L 662.71 616.15 L 662.74 610.48 L 662.81 604.82 L 662.93 599.15 L 663.12 593.49 L 663.36 587.83 L 663.57 582.20 L 663.60 576.61 L 663.28 571.11 L 662.44 565.72 L 660.95 560.47 L 658.80 555.43 L 656.08 550.67 L 652.83 546.28 L 649.13 542.34 L 645.03 538.91 L 640.60 536.07 L 635.90 533.92 L 630.99 532.51 L 625.94 531.93 Z" fill="#F4EFE4" fill-rule="evenodd"/>
</svg>

